<svg width="54" height="22" viewBox="0 0 54 22" fill="none" xmlns="http://www.w3.org/2000/svg">
<g id="AT&#38;T_logo_2016 1" clip-path="url(#clip0_710_44137)">
<g id="g3">
<path id="path5" d="M49.7127 15.4833C49.5689 15.4833 49.4699 15.3856 49.4699 15.2451V8.26404H47.0514C46.9076 8.26404 46.8084 8.16675 46.8084 8.02605V7.06309C46.8084 6.92207 46.9077 6.82452 47.0514 6.82452H53.489C53.6327 6.82452 53.7316 6.92218 53.7316 7.06309V8.026C53.7316 8.16659 53.6327 8.26404 53.489 8.26404H51.0707V15.245C51.0707 15.3856 50.9712 15.4833 50.8279 15.4833H49.7127ZM31.1866 11.998L29.917 8.42659L28.6361 11.998H31.1866ZM34.0023 15.2013C34.0578 15.3423 33.9693 15.4833 33.8147 15.4833H32.6665C32.5008 15.4833 32.4013 15.4078 32.3459 15.2556L31.6947 13.4162H28.1285L27.4762 15.2556C27.4214 15.4078 27.3217 15.4833 27.1564 15.4833H26.0746C25.9309 15.4833 25.8313 15.3423 25.8866 15.2013L28.8789 7.04144C28.9343 6.88942 29.0336 6.82489 29.1989 6.82489H30.6785C30.8443 6.82489 30.9548 6.88947 31.0099 7.04144L34.0023 15.2013ZM42.5794 14.3142C43.2857 14.3142 43.7608 13.9792 44.1473 13.4053L42.3589 11.5219C41.6739 11.901 41.232 12.2793 41.232 13.0371C41.2321 13.7841 41.8502 14.3142 42.5794 14.3142ZM43.0762 7.97174C42.5022 7.97174 42.1709 8.32925 42.1709 8.80538C42.1709 9.17332 42.3693 9.49807 42.8222 9.97441C43.6061 9.53036 43.9375 9.25992 43.9375 8.78384C43.9375 8.33973 43.6505 7.97174 43.0762 7.97174ZM47.9681 15.1802C48.1115 15.3319 48.0234 15.4833 47.8462 15.4833H46.4439C46.2563 15.4833 46.1569 15.4398 46.0355 15.299L45.1963 14.3902C44.6333 15.1262 43.8487 15.6781 42.546 15.6781C40.934 15.6781 39.6638 14.7257 39.6638 13.0917C39.6638 11.8358 40.3488 11.1646 41.3869 10.6019C40.8785 10.0284 40.6471 9.42221 40.6471 8.89214C40.6471 7.5497 41.6076 6.62988 43.0539 6.62988C44.5335 6.62988 45.4391 7.48523 45.4391 8.75129C45.4391 9.83361 44.6443 10.4392 43.8048 10.8941L45.0417 12.2041L45.7372 11.0131C45.8255 10.8726 45.9249 10.8183 46.1013 10.8183H47.1722C47.3491 10.8183 47.4485 10.9377 47.3384 11.1216L46.1015 13.1993L47.9681 15.1802ZM36.9486 15.4833C37.0922 15.4833 37.192 15.3856 37.192 15.2451V8.26404H39.6098C39.7534 8.26404 39.8526 8.16675 39.8526 8.02605V7.06309C39.8526 6.92207 39.7534 6.82452 39.6098 6.82452H33.1722C33.0284 6.82452 32.9293 6.92218 32.9293 7.06309V8.026C32.9293 8.16659 33.0285 8.26404 33.1722 8.26404H35.59V15.245C35.59 15.3856 35.6897 15.4833 35.8331 15.4833H36.9486Z" fill="black"/>
<path id="path9" d="M4.27215 19.6946C6.14475 21.116 8.49519 21.97 11.0453 21.97C13.836 21.97 16.3801 20.9541 18.3217 19.2864C18.3452 19.266 18.3336 19.2525 18.3104 19.266C17.4392 19.8366 14.9559 21.0821 11.0454 21.0821C7.64702 21.0821 5.49937 20.3386 4.28654 19.6748C4.26334 19.6635 4.25474 19.6806 4.27215 19.6946ZM11.7951 20.248C14.5132 20.248 17.5 19.5215 19.2864 18.0833C19.7753 17.6914 20.2409 17.1699 20.6579 16.469C20.898 16.0657 21.1328 15.5866 21.324 15.1156C21.3325 15.0926 21.3181 15.0815 21.3005 15.1073C19.6392 17.5044 14.8287 18.9996 9.8616 18.9996C6.35066 18.9996 2.57295 17.8987 1.09394 15.7966C1.07939 15.7771 1.06483 15.7855 1.07369 15.8078C2.45149 18.6793 6.6314 20.248 11.7951 20.248ZM8.8253 15.4843C3.17219 15.4843 0.506628 12.9025 0.0230994 11.1407C0.0171365 11.1152 0 11.1208 0 11.1437C0 11.7368 0.0605418 12.5022 0.164704 13.0103C0.214394 13.2576 0.419656 13.6457 0.720593 13.9551C2.08947 15.3542 5.50227 17.3147 11.4127 17.3147C19.4654 17.3147 21.3066 14.6844 21.6826 13.8194C21.9515 13.2008 22.0908 12.0828 22.0908 11.1437C22.0908 10.9165 22.085 10.735 22.0762 10.5568C22.0762 10.5279 22.0591 10.5255 22.0532 10.5537C21.6508 12.6702 14.7707 15.4843 8.8253 15.4843ZM1.06483 6.49918C0.740899 7.12955 0.381838 8.19301 0.275097 8.74342C0.228308 8.97925 0.248238 9.0925 0.332577 9.26849C1.01014 10.6781 4.43739 12.9336 12.4318 12.9336C17.309 12.9336 21.0977 11.7587 21.7115 9.61462C21.8245 9.21992 21.8306 8.80321 21.6854 8.24169C21.5232 7.61421 21.2193 6.8825 20.9622 6.3687C20.9537 6.35195 20.9387 6.35443 20.9418 6.37423C21.0373 9.18637 13.0397 10.9988 9.00445 10.9988C4.63357 10.9988 0.987041 9.29114 0.987041 7.13492C0.987041 6.92775 1.03077 6.72052 1.08535 6.50487C1.09083 6.48517 1.07364 6.4819 1.06483 6.49918ZM18.3396 3.04645C18.386 3.11777 18.4092 3.19389 18.4092 3.29634C18.4092 4.49924 14.6547 6.62723 8.678 6.62723C4.28654 6.62723 3.46437 5.02979 3.46437 4.01389C3.46437 3.65075 3.6064 3.27917 3.91921 2.9018C3.93629 2.87936 3.92179 2.87073 3.90207 2.88742C3.33157 3.3615 2.80738 3.89495 2.34754 4.4708C2.12783 4.74313 1.99143 4.98439 1.99143 5.12893C1.99143 7.23421 7.37498 8.76064 12.4088 8.76064C17.7723 8.76064 20.1661 7.04374 20.1661 5.5349C20.1661 4.99566 19.952 4.68087 19.4044 4.07057C19.0489 3.67355 18.7127 3.35028 18.3568 3.03207C18.3396 3.01817 18.3276 3.02949 18.3396 3.04645ZM16.6953 1.84382C15.04 0.870898 13.1178 0.317383 11.0454 0.317383C8.95863 0.317383 6.97848 0.89023 5.31721 1.88891C4.8189 2.18963 4.53843 2.43062 4.53843 2.74041C4.53843 3.65359 6.71488 4.63546 10.5762 4.63546C14.3974 4.63546 17.3612 3.55999 17.3612 2.52475C17.3612 2.27765 17.141 2.10477 16.6953 1.84382Z" fill="#00A8E0"/>
</g>
</g>
<defs>
<clipPath id="clip0_710_44137">
<rect width="53.7337" height="21.6539" fill="white" transform="translate(0 0.317383)"/>
</clipPath>
</defs>
</svg>
