<svg width="26" height="16" viewBox="0 0 26 16" fill="none" xmlns="http://www.w3.org/2000/svg">
<g id="Bell_logo 2" clip-path="url(#clip0_710_44161)">
<g id="Group">
<g id="Group_2">
<path id="Vector" d="M19.1818 9.26454C19.0491 8.62288 18.7952 8.09235 18.429 7.60937C17.6785 6.61894 16.4629 5.99294 14.8176 5.99294C12.2598 5.99294 10.6872 7.72988 10.2214 9.5608C9.80316 8.26979 8.68377 7.39883 7.50136 7.03083C8.39135 6.38204 8.85727 5.45397 8.85727 4.39451C8.85727 3.4111 8.4479 2.51595 7.76264 1.93337C6.75729 1.07873 5.38694 0.904297 3.69838 0.904297C2.40221 0.904297 1.91323 0.904297 0.397705 0.904297V15.1569C1.3329 15.1569 2.29418 15.1528 3.23125 15.1569C4.06498 15.1607 4.8792 15.1558 5.63846 15.1254C8.04173 15.0291 9.68668 13.8194 10.2132 12.0028C10.394 12.8105 10.7417 13.4689 11.1958 13.9686C12.1213 14.9872 13.463 15.3854 14.8142 15.3854C16.4779 15.3854 17.6808 14.9029 18.5025 14.1636L17.3264 12.7812C16.7345 13.2274 15.9739 13.4905 15.1196 13.4905C13.4442 13.4852 12.7054 12.4251 12.6391 11.4058H19.1817V15.1569H21.6323V0.975478H19.1817V9.26454H19.1818ZM2.91586 2.82984L3.59682 2.82946C4.25442 2.82946 4.77379 2.90018 5.14779 3.04535C5.88623 3.33186 6.23726 3.91903 6.23726 4.6525C6.23811 5.27269 6.00084 6.24728 4.69623 6.51371C4.478 6.55826 4.16364 6.58292 3.71948 6.58292C3.09226 6.58292 2.91586 6.58292 2.91586 6.58292V2.82984ZM5.68629 13.0709C5.37953 13.126 5.0044 13.1383 4.6997 13.1383C3.77791 13.1383 2.91567 13.1383 2.91567 13.1383L2.91577 8.48858C2.91577 8.48858 3.85219 8.48858 4.51204 8.48858C5.01584 8.48858 5.58594 8.54523 5.91259 8.63076C7.03244 8.92458 7.67579 9.72755 7.67579 10.7909C7.67579 11.8919 7.08337 12.8192 5.68629 13.0709ZM12.6842 9.63376C12.9002 8.59559 13.6677 7.84833 14.7987 7.84833C15.9309 7.84833 16.6841 8.51785 16.8792 9.63376H12.6842Z" fill="#0067A4"/>
<path id="Vector_2" d="M25.6777 0.974609H23.2688V15.1559H25.6777V0.974609Z" fill="#0067A4"/>
</g>
</g>
</g>
<defs>
<clipPath id="clip0_710_44161">
<rect width="25.2794" height="14.4812" fill="white" transform="translate(0.397705 0.904297)"/>
</clipPath>
</defs>
</svg>
