<svg width="83" height="15" viewBox="0 0 83 15" fill="none" xmlns="http://www.w3.org/2000/svg">
<g id="layer1">
<path id="path3392" d="M76.2437 6.43672C75.9791 6.29546 75.7786 6.18933 75.5289 6.05588C74.6876 5.60794 74.0344 5.25442 74.0344 4.49822C74.0344 3.64915 74.8398 3.28626 75.7388 3.28626C76.9437 3.28626 77.8755 3.68739 78.0628 3.75762V1.96427C77.913 1.9182 77.0858 1.64197 75.5562 1.64197C73.2111 1.64197 71.9492 3.02639 71.9492 4.60513C71.9492 6.17997 73.2283 6.99158 74.2927 7.55814C74.5362 7.68769 74.8304 7.84455 75.063 7.96785C75.9448 8.43765 76.5925 8.80678 76.5925 9.62229C76.5925 10.5502 75.6959 10.9888 74.8008 10.9888C73.272 10.9888 72.3441 10.4308 72.1864 10.3442L71.669 11.9299C71.8204 12.0204 73.0394 12.6432 74.8359 12.6432C77.0342 12.6432 78.677 11.3555 78.677 9.4506C78.677 8.09818 77.7569 7.24208 76.2437 6.43672ZM65.5921 6.73483H64.3154V3.37679H65.5921C67.277 3.37679 67.5727 4.46856 67.5727 5.03981C67.5727 5.70783 67.234 6.73483 65.5921 6.73483ZM67.5673 8.0615V7.9936C68.0059 7.82894 69.5284 7.05947 69.5284 5.05074C69.5284 3.61793 68.6044 1.77932 65.642 1.77932H62.4096V12.5105H64.3154V8.33152H64.9998C65.9878 8.33152 66.2383 8.69127 66.8548 9.79866L68.3875 12.5105H70.5843L68.8097 9.38037C68.2259 8.33463 67.7772 8.12237 67.5673 8.0615ZM23.2596 6.73483H21.9836V3.37679H23.2596C24.946 3.37679 25.2394 4.46856 25.2394 5.03981C25.2394 5.70783 24.9015 6.73483 23.2596 6.73483ZM25.2355 8.0615V7.9936C25.6749 7.82894 27.1967 7.05947 27.1967 5.05074C27.1967 3.61793 26.2719 1.77932 23.3095 1.77932H20.0763V12.5105H21.9836V8.33152H22.6688C23.6552 8.33152 23.9057 8.69127 24.5223 9.79866L26.0557 12.5105H28.2518L26.4771 9.38037C25.895 8.33463 25.4455 8.12237 25.2355 8.0615ZM46.371 8.26986H48.0075V10.6743C47.5915 10.8701 47.1521 10.9997 46.4498 10.9997C44.1812 10.9997 43.0551 9.48416 43.0551 7.16951C43.0551 4.88763 44.1976 3.29016 46.5177 3.29016C47.3691 3.29016 48.2322 3.56408 48.9486 4.01437L49.4855 2.36852C48.6411 1.92759 47.5213 1.64353 46.3725 1.64353C43.0956 1.64353 41.0104 4.04012 41.0104 7.30061C41.0104 10.3801 42.8553 12.6455 46.3054 12.6455C47.7749 12.6455 48.9822 12.2717 49.9397 11.7824V6.71922H46.8774L46.371 8.26986ZM54.9865 7.83674H59.1V6.24084H54.9865V3.37523H59.1172L59.6385 1.77932H53.0324V12.5105H59.6541V10.9146H54.9865V7.83674ZM34.1157 10.9997C32.167 10.9997 31.1509 9.58171 31.1509 7.15312C31.1509 4.70814 32.167 3.29016 34.1157 3.29016C36.1119 3.29016 37.0796 4.77291 37.0796 7.15312C37.0796 9.58171 36.0487 10.9997 34.1157 10.9997ZM34.1157 1.64353C31.0003 1.64353 29.1063 3.89341 29.1063 7.15312C29.1063 10.4456 31.0175 12.6463 34.1157 12.6463C37.1826 12.6463 39.1242 10.4456 39.1242 7.15312C39.1242 3.9098 37.231 1.64353 34.1157 1.64353ZM82.2418 11.3189L81.8899 12.2343H81.8849L81.529 11.3189H81.2691V12.5105H81.4307V11.514H81.4351L81.8268 12.5105H81.9361L82.3286 11.514H82.333V12.5105H82.4992V11.3189H82.2409H82.2418ZM80.1457 11.4656H80.5289V12.5105H80.6943V11.4656H81.0775V11.3189H80.1457V11.4656ZM12.3301 6.65288C12.7898 6.05198 13.1472 5.05932 13.1472 4.03778C13.1472 1.95647 11.1994 0.015625 7.97164 0.015625C5.99022 0.015625 4.41694 0.812409 3.35326 1.72079C3.87457 1.55066 4.61516 1.37819 5.54149 1.37819C8.01846 1.37819 10.9231 3.3323 12.3301 6.65288ZM3.63108 7.63774C3.17143 8.23787 2.81401 9.23131 2.81401 10.2521C2.81401 12.3334 4.76188 14.2742 7.98959 14.2742C9.97101 14.2742 11.5443 13.4774 12.6072 12.5698C12.0867 12.74 11.3461 12.9117 10.4197 12.9117C7.94276 12.9117 5.03813 10.9583 3.63108 7.63774ZM7.4878 2.79617C6.88767 2.33574 5.89423 1.97832 4.87347 1.97832C2.79294 1.97832 0.851318 3.92619 0.851318 7.15468C0.851318 9.1361 1.6481 10.7086 2.5557 11.7715C2.38557 11.2518 2.21389 10.5104 2.21389 9.58405C2.21389 7.10785 4.16722 4.20323 7.4878 2.79617ZM13.7473 4.7058C13.7473 7.18277 11.794 10.0874 8.47265 11.4945C9.07278 11.9541 10.067 12.3123 11.0878 12.3123C13.1691 12.3123 15.1099 10.3644 15.1099 7.13673C15.1099 5.15453 14.3123 3.58125 13.4055 2.51835C13.5749 3.0381 13.7473 3.77947 13.7473 4.7058Z" fill="#EE2722"/>
</g>
</svg>
