<svg width="84" height="18" viewBox="0 0 84 18" fill="none" xmlns="http://www.w3.org/2000/svg">
<g id="Telus-Logo 2" clip-path="url(#clip0_710_44168)">
<g id="layer1">
<g id="g2408">
<path id="polyline2384" d="M49.8771 5.79833V4.12988H43.9253V12.7142H49.8771V10.9731H46.335V9.07016H49.2811V7.40378H46.335V5.79833H49.8771Z" fill="#49266C"/>
<path id="polyline2386" d="M60.374 11.0202H56.6556V4.12988H54.2163V12.7142H60.374V11.0202Z" fill="#49266C"/>
<path id="path2388" d="M80.0219 7.40041C78.3758 7.0296 77.7994 6.98656 77.7994 6.33172C77.7994 5.72404 78.6151 5.53502 79.0844 5.53502C79.8432 5.53502 80.7394 5.71199 81.6528 6.18023L82.3169 4.6006C81.3808 4.09036 80.1799 3.87793 79.0248 3.87793C76.7549 3.87793 75.2317 4.79892 75.1677 6.59441C75.1029 8.23188 76.4343 8.84438 77.6579 9.09709C78.8375 9.34085 80.0343 9.54949 80.0584 10.2501C80.0801 10.8964 79.4989 11.1732 78.4023 11.1732C77.3866 11.1732 76.4422 10.8468 75.4775 10.4426L74.9136 12.1596C76.0229 12.6313 77.1487 12.8912 78.3093 12.8912C79.922 12.8912 81.0988 12.6395 81.9651 11.8263C82.5655 11.2679 82.7621 10.5937 82.7621 9.95025C82.7635 8.59339 81.9176 7.82905 80.0219 7.40041Z" fill="#49266C"/>
<path id="polyline2390" d="M40.4663 5.8245V4.12988H32.98V5.8245H35.5092V12.7142H37.934V5.8245H40.4663Z" fill="#49266C"/>
<path id="path2392" d="M68.6949 4.12988V9.58385C68.6949 10.0111 68.6949 10.1292 68.6694 10.2955C68.5909 10.8154 68.0876 11.117 67.284 11.1277C66.689 11.118 66.2532 10.9421 66.0504 10.6312C65.9481 10.4714 65.8985 10.1843 65.8985 9.7257V4.12988H63.3687V10.0459C63.3687 10.8657 63.4781 11.2358 63.8483 11.7037C64.459 12.467 65.6496 12.8684 67.2888 12.8684C67.3074 12.8684 67.3236 12.8684 67.3428 12.8684C67.3515 12.8684 67.3663 12.8684 67.3787 12.8684C69.5735 12.8684 70.7073 12.0125 71.0347 11.2117C71.1983 10.8233 71.2103 10.6395 71.2103 9.85584V4.12988H68.6949Z" fill="#49266C"/>
<path id="path2394" d="M34.1244 1.77919L19.937 4.60378V5.59328L19.9821 5.58158C29.3545 3.30338 34.124 1.93309 34.1626 1.92345C34.2156 1.90968 34.2342 1.86836 34.227 1.83359C34.219 1.79709 34.1808 1.76679 34.1244 1.77919Z" fill="#49266C"/>
<path id="path2396" d="M22.5875 1.50949C21.8979 1.54874 20.6209 2.57026 19.9199 3.17691C17.1287 5.59179 15.0533 7.81145 13.5442 10.1361C10.3984 11.8211 6.38705 13.5539 2.40494 14.9063L2.30888 14.9387L1.54248 17.0024L1.98008 16.8333C4.5134 15.8679 8.74168 14.0549 12.5747 12.0394C12.3588 12.6151 12.25 13.1442 12.25 13.6266C12.25 13.9864 12.3103 14.321 12.4305 14.625C12.6715 15.2324 13.1466 15.6924 13.8052 15.9537C14.7861 16.3451 16.1244 16.3524 17.6513 15.89C21.5522 14.7077 26.1792 11.0774 27.1866 10.3554L27.2251 10.3282C27.2647 10.2997 27.2675 10.2566 27.251 10.2274C27.2289 10.194 27.1824 10.185 27.1442 10.2084L27.0946 10.2384C26.0136 10.8874 20.7603 14.0063 17.3456 14.9222C15.6062 15.3887 14.2807 15.1339 13.7808 14.4346C13.6072 14.1957 13.5236 13.8934 13.5236 13.5409C13.5236 12.8526 13.8476 11.9764 14.4714 11.0024C15.0457 10.6756 15.5821 10.3561 16.0655 10.0525C19.3969 8.18019 23.2351 4.53997 23.399 2.31789C23.3997 2.30274 23.3997 2.28518 23.3997 2.26866C23.3997 2.07688 23.3167 1.8796 23.1711 1.73397C23.0148 1.57456 22.8089 1.49503 22.5875 1.50949ZM22.216 2.56854C22.4346 2.42703 22.4976 2.51552 22.4332 2.67527C22.3293 2.93039 21.8483 4.46526 18.2769 7.39727C17.3449 8.16057 16.6821 8.58922 15.3401 9.38385C17.5377 6.30413 20.7462 3.52292 22.216 2.56854Z" fill="#6EBE44"/>
<path id="polyline2398" d="M19.8904 4.61328L4.96384 7.82176L4.38818 9.37419L19.9369 5.59314L20.4178 5.32149L20.4044 4.615L19.8904 4.61328Z" fill="#49266C"/>
</g>
</g>
</g>
<defs>
<clipPath id="clip0_710_44168">
<rect width="83.1523" height="17.0084" fill="white" transform="translate(0.67334 0.640625)"/>
</clipPath>
</defs>
</svg>
