<svg width="78" height="14" viewBox="0 0 78 14" fill="none" xmlns="http://www.w3.org/2000/svg">
<g id="T-Mobile_logo 1" clip-path="url(#clip0_710_44144)">
<path id="path3209" d="M57.4206 2.10546C57.4207 2.23624 57.3956 2.36576 57.3469 2.4866C57.2981 2.60745 57.2267 2.71726 57.1365 2.80976C57.0464 2.90226 56.9394 2.97564 56.8217 3.02571C56.7039 3.07577 56.5777 3.10154 56.4502 3.10154C56.3228 3.10154 56.1965 3.07577 56.0788 3.02571C55.961 2.97564 55.854 2.90226 55.7639 2.80976C55.6738 2.71726 55.6023 2.60745 55.5536 2.4866C55.5048 2.36576 55.4798 2.23624 55.4799 2.10546C55.4798 1.97467 55.5048 1.84516 55.5536 1.72431C55.6023 1.60346 55.6738 1.49365 55.7639 1.40115C55.854 1.30865 55.961 1.23527 56.0788 1.18521C56.1965 1.13514 56.3228 1.10938 56.4502 1.10938C56.5777 1.10938 56.7039 1.13514 56.8217 1.18521C56.9394 1.23527 57.0464 1.30865 57.1365 1.40115C57.2267 1.49365 57.2981 1.60346 57.3469 1.72431C57.3956 1.84516 57.4207 1.97467 57.4206 2.10546Z" fill="#999B9E"/>
<path id="rect3211" d="M74.6783 6.47949H72.2084V9.00003H74.6783V6.47949Z" fill="#999B9E"/>
<path id="rect3213" d="M25.692 6.47949H23.222V9.00003H25.692V6.47949Z" fill="#999B9E"/>
<path id="rect3215" d="M18.2837 6.47949H15.8137V9.00003H18.2837V6.47949Z" fill="#999B9E"/>
<path id="rect3217" d="M10.9889 6.47949H8.51892V9.00003H10.9889V6.47949Z" fill="#999B9E"/>
<path id="rect3219" d="M3.43416 6.47949H0.964233V9.00003H3.43416V6.47949Z" fill="#999B9E"/>
<path id="path3221" d="M6.89244 1.44591H7.18549C9.07823 1.44591 9.96042 2.45845 10.3291 5.15871L10.9151 5.13279L10.8369 0.848633H1.20564L1.11072 5.13279L1.67472 5.15871C1.7724 4.14617 1.88956 3.60087 2.1438 3.05558C2.59326 2.04288 3.53127 1.44591 4.68412 1.44591H5.09447V10.7668C5.09447 11.7535 5.03589 12.0651 4.80158 12.2988C4.60607 12.4805 4.21519 12.5584 3.76558 12.5584H3.31613V13.1814H8.67079V12.5584H8.21857C7.77188 12.5584 7.37824 12.4803 7.18564 12.2988C6.95118 12.0651 6.8926 11.7533 6.8926 10.7668V1.44591" fill="#ED008C"/>
<path id="path3223" d="M32.3704 13.1842L35.4909 2.29576V10.8403C35.4909 11.7728 35.4379 12.1005 35.2263 12.3273C35.0674 12.5036 34.6992 12.5794 34.291 12.5794H34.1323V13.1842H38.5433V12.5794H38.3137C37.908 12.5794 37.5375 12.5038 37.3788 12.3273C37.1668 12.1005 37.1139 11.7728 37.1139 10.8403V3.5561C37.1139 2.62346 37.1668 2.27061 37.3788 2.04381C37.5551 1.89262 37.908 1.79171 38.3137 1.79171H38.5433V1.21191H35.1204L32.5444 10.0084L30.0239 1.21191H26.6187V1.79171H26.9361C27.8714 1.79171 28.0477 1.99336 28.0477 3.20326V10.1345C28.0477 11.2435 27.9948 11.6972 27.8359 12.0249C27.6596 12.3526 27.2865 12.5794 26.9008 12.5794H26.6185V13.1842H30.253V12.5794H30.0237C29.5651 12.5794 29.1944 12.4029 28.9802 12.05C28.771 11.6972 28.7181 11.3695 28.7181 10.1345V2.29591L31.8208 13.1843H32.3704" fill="#999B9E"/>
<path id="path3225" d="M42.3369 4.66309C40.1491 4.66309 38.7201 6.37703 38.7201 9.07406C38.7201 11.6702 40.1491 13.4346 42.2817 13.4346C44.4339 13.4346 45.8631 11.6702 45.8631 9.04891C45.8631 6.45263 44.4339 4.66309 42.3369 4.66309ZM42.2664 5.24273C42.8991 5.24273 43.4459 5.64603 43.7458 6.32658C44.0281 6.95667 44.1516 7.81372 44.1516 9.04876C44.1516 11.5943 43.5341 12.8545 42.2815 12.8545C41.0313 12.8545 40.4288 11.5941 40.4288 9.02346C40.4288 7.81356 40.5547 6.95667 40.837 6.32658C41.117 5.67133 41.6841 5.24273 42.2664 5.24273Z" fill="#999B9E"/>
<path id="path3227" d="M48.7959 1.08496L46.2904 1.21101V1.76551H46.4114C47.1525 1.76551 47.3138 2.01761 47.3138 3.2022V11.3937C47.3138 12.4523 47.2786 12.7297 47.1375 13.1833H47.7197C48.1581 12.4523 48.2666 12.3264 48.4431 12.3264C48.5288 12.3264 48.6144 12.3515 48.7406 12.4776C49.6074 13.1833 49.9779 13.3345 50.7719 13.3345C52.6748 13.3345 54.051 11.4945 54.051 8.87321C54.051 6.40313 52.7781 4.73964 50.8753 4.73964C49.8873 4.73964 49.1664 5.21853 48.7959 6.07543V1.08496ZM50.6258 5.36973C51.7576 5.36973 52.3397 6.57963 52.3397 8.94881C52.3397 11.444 51.7398 12.7295 50.593 12.7295C49.3227 12.7295 48.6545 11.4187 48.6545 9.02441C48.6545 7.81451 48.8135 6.98292 49.184 6.35267C49.5166 5.74788 50.0839 5.36973 50.6258 5.36973Z" fill="#999B9E"/>
<path id="path3229" d="M57.3148 4.79102L54.7414 4.94221V5.49671H54.9355C55.6739 5.49671 55.8329 5.74881 55.8329 6.90825V11.1679C55.8329 12.3275 55.674 12.6047 54.9355 12.6047H54.6556V13.1842H58.4971V12.6047H58.2197C57.4761 12.6047 57.315 12.3525 57.315 11.1679V4.79102" fill="#999B9E"/>
<path id="path3231" d="M61.778 1.08496L59.2046 1.21101V1.76551H59.3964C60.1374 1.76551 60.2961 2.01761 60.2961 3.2022V11.1668C60.2961 12.3515 60.1374 12.6036 59.3964 12.6036H59.1166V13.1831H62.9602V12.6036H62.6779C61.9343 12.6036 61.778 12.3514 61.778 11.1668V1.08496Z" fill="#999B9E"/>
<path id="path3233" d="M69.9774 8.99831C69.8916 6.32657 68.6213 4.66309 66.7008 4.66309C64.8456 4.66309 63.5072 6.47777 63.5072 8.99831C63.5072 11.6952 64.828 13.4344 66.8747 13.4344C68.1979 13.4344 69.1153 12.7286 69.8741 11.1658L69.3449 10.8886C68.7274 12.1992 68.1099 12.7286 67.157 12.7286C65.7632 12.7286 65.1659 11.6197 65.148 8.99831H69.9774ZM65.1658 8.36806C65.181 6.47777 65.7957 5.29318 66.7863 5.29318C67.7743 5.29318 68.3564 6.45263 68.339 8.36806H65.1658Z" fill="#999B9E"/>
<g id="g3235">
<g id="g3237">
<path id="path3239" d="M75.6029 4.45703C75.7519 4.45703 75.8974 4.49522 76.0394 4.57174C76.1814 4.64826 76.292 4.75774 76.3711 4.90005C76.4506 5.04235 76.4901 5.19079 76.4901 5.34536C76.4901 5.4984 76.451 5.64546 76.3728 5.78654C76.2949 5.92777 76.1853 6.03741 76.0447 6.11546C75.9037 6.19351 75.7565 6.23262 75.6027 6.23262C75.4489 6.23262 75.3017 6.19367 75.1608 6.11546C75.02 6.03741 74.9102 5.92792 74.832 5.78654C74.7535 5.64546 74.7142 5.4984 74.7142 5.34536C74.7142 5.19079 74.7539 5.04235 74.8337 4.90005C74.9133 4.75774 75.0241 4.6481 75.1658 4.57174C75.3084 4.49522 75.454 4.45703 75.6029 4.45703ZM75.6029 4.60486C75.4783 4.60486 75.3569 4.63675 75.2391 4.7007C75.1212 4.76464 75.0289 4.85573 74.9622 4.97442C74.8956 5.09311 74.8625 5.21686 74.8625 5.34521C74.8625 5.47294 74.8952 5.59531 74.9607 5.71247C75.026 5.82963 75.1175 5.92086 75.235 5.98634C75.3526 6.05182 75.4753 6.08448 75.6029 6.08448C75.7308 6.08448 75.8531 6.05182 75.9707 5.98634C76.0882 5.92102 76.1794 5.82978 76.2445 5.71247C76.3095 5.59531 76.3422 5.47294 76.3422 5.34521C76.3422 5.21686 76.309 5.09311 76.2428 4.97442C76.1765 4.85588 76.0844 4.76464 75.966 4.7007C75.8478 4.63675 75.7268 4.60486 75.6029 4.60486ZM75.2134 5.83514V4.87981H75.5423C75.6544 4.87981 75.736 4.8887 75.7861 4.90633C75.8366 4.92397 75.8766 4.95479 75.9063 4.9988C75.9362 5.04266 75.9513 5.08943 75.9513 5.13881C75.9513 5.20858 75.9261 5.26946 75.8761 5.32113C75.8265 5.37281 75.76 5.40194 75.6774 5.40823C75.7113 5.42234 75.7383 5.43921 75.7587 5.45884C75.7973 5.49641 75.8444 5.55958 75.9001 5.64822L76.0168 5.8353H75.8277L75.7426 5.68456C75.6759 5.56664 75.6223 5.49273 75.582 5.46267C75.5538 5.44044 75.5126 5.42939 75.4584 5.42939H75.3676V5.8353H75.2134V5.83514ZM75.3678 5.29813H75.5558C75.6454 5.29813 75.7065 5.28479 75.7393 5.25795C75.7722 5.23112 75.7883 5.19569 75.7883 5.15153C75.7883 5.12316 75.7804 5.09771 75.7647 5.07532C75.7489 5.05293 75.7272 5.03606 75.699 5.02502C75.6711 5.01398 75.6193 5.00862 75.5437 5.00862H75.3678V5.29813Z" fill="#999B9E"/>
</g>
</g>
</g>
<defs>
<clipPath id="clip0_710_44144">
<rect width="76.9915" height="13.6339" fill="white" transform="translate(0.231812 0.327148)"/>
</clipPath>
</defs>
</svg>
