<svg width="124" height="21" viewBox="0 0 124 21" fill="none" xmlns="http://www.w3.org/2000/svg">
<path fill-rule="evenodd" clip-rule="evenodd" d="M17.5001 10.7282H14.5834V13.6449C14.5834 13.9657 14.3209 14.2282 14.0001 14.2282C13.6792 14.2282 13.4167 13.9657 13.4167 13.6449V10.7282H10.5001C10.1792 10.7282 9.91675 10.4657 9.91675 10.1449C9.91675 9.82402 10.1792 9.56152 10.5001 9.56152H13.4167V6.64486C13.4167 6.32402 13.6792 6.06152 14.0001 6.06152C14.3209 6.06152 14.5834 6.32402 14.5834 6.64486V9.56152H17.5001C17.8209 9.56152 18.0834 9.82402 18.0834 10.1449C18.0834 10.4657 17.8209 10.7282 17.5001 10.7282Z" fill="#4E4B66"/>
<path d="M27.6761 14.2766C27.2614 14.2766 26.8878 14.2028 26.5554 14.055C26.2259 13.9045 25.9645 13.6829 25.7713 13.3903C25.581 13.0977 25.4858 12.7369 25.4858 12.3079C25.4858 11.9386 25.554 11.6332 25.6903 11.3917C25.8267 11.1502 26.0128 10.957 26.2486 10.8121C26.4844 10.6673 26.75 10.5579 27.0455 10.484C27.3438 10.4073 27.652 10.3519 27.9702 10.3178C28.3537 10.2781 28.6648 10.2425 28.9034 10.2113C29.142 10.1772 29.3153 10.1261 29.4233 10.0579C29.5341 9.98686 29.5895 9.87749 29.5895 9.72976V9.70419C29.5895 9.38317 29.4943 9.13459 29.304 8.95845C29.1136 8.78232 28.8395 8.69425 28.4815 8.69425C28.1037 8.69425 27.804 8.77663 27.5824 8.94141C27.3636 9.10618 27.2159 9.30078 27.1392 9.52521L25.6989 9.32067C25.8125 8.92294 26 8.59055 26.2614 8.32351C26.5227 8.05362 26.8423 7.85192 27.2202 7.71839C27.598 7.58203 28.0156 7.51385 28.473 7.51385C28.7884 7.51385 29.1023 7.55078 29.4148 7.62464C29.7273 7.69851 30.0128 7.82067 30.2713 7.99112C30.5298 8.15874 30.7372 8.38743 30.8935 8.6772C31.0526 8.96697 31.1321 9.32919 31.1321 9.76385V14.1445H29.6491V13.2454H29.598C29.5043 13.4272 29.3722 13.5977 29.2017 13.7567C29.0341 13.913 28.8224 14.0394 28.5668 14.136C28.3139 14.2298 28.017 14.2766 27.6761 14.2766ZM28.0767 13.1431C28.3864 13.1431 28.6548 13.082 28.8821 12.9599C29.1094 12.8349 29.2841 12.6701 29.4062 12.4656C29.5312 12.261 29.5938 12.038 29.5938 11.7965V11.0252C29.5455 11.065 29.4631 11.1019 29.3466 11.136C29.233 11.1701 29.1051 11.1999 28.9631 11.2255C28.821 11.2511 28.6804 11.2738 28.5412 11.2937C28.402 11.3136 28.2813 11.3306 28.179 11.3448C27.9489 11.3761 27.7429 11.4272 27.5611 11.4982C27.3793 11.5692 27.2358 11.6687 27.1307 11.7965C27.0256 11.9215 26.973 12.0835 26.973 12.2823C26.973 12.5664 27.0767 12.7809 27.2841 12.9258C27.4915 13.0707 27.7557 13.1431 28.0767 13.1431ZM34.2259 5.41726V14.1445H32.6832V5.41726H34.2259ZM37.3548 5.41726V14.1445H35.8121V5.41726H37.3548ZM43.4602 5.41726V14.1445H41.9176V5.41726H43.4602ZM47.9016 14.2724C47.2624 14.2724 46.7085 14.1317 46.2397 13.8505C45.771 13.5692 45.4073 13.1758 45.1488 12.6701C44.8931 12.1644 44.7653 11.5735 44.7653 10.8974C44.7653 10.2212 44.8931 9.62891 45.1488 9.12038C45.4073 8.61186 45.771 8.21697 46.2397 7.93572C46.7085 7.65447 47.2624 7.51385 47.9016 7.51385C48.5408 7.51385 49.0948 7.65447 49.5636 7.93572C50.0323 8.21697 50.3945 8.61186 50.6502 9.12038C50.9087 9.62891 51.038 10.2212 51.038 10.8974C51.038 11.5735 50.9087 12.1644 50.6502 12.6701C50.3945 13.1758 50.0323 13.5692 49.5636 13.8505C49.0948 14.1317 48.5408 14.2724 47.9016 14.2724ZM47.9102 13.0366C48.2567 13.0366 48.5465 12.9414 48.7795 12.7511C49.0124 12.5579 49.1857 12.2994 49.2994 11.9755C49.4158 11.6516 49.4741 11.2908 49.4741 10.8931C49.4741 10.4925 49.4158 10.1303 49.2994 9.80646C49.1857 9.47976 49.0124 9.21982 48.7795 9.02663C48.5465 8.83345 48.2567 8.73686 47.9102 8.73686C47.555 8.73686 47.2596 8.83345 47.0238 9.02663C46.7908 9.21982 46.6161 9.47976 46.4996 9.80646C46.386 10.1303 46.3292 10.4925 46.3292 10.8931C46.3292 11.2908 46.386 11.6516 46.4996 11.9755C46.6161 12.2994 46.7908 12.5579 47.0238 12.7511C47.2596 12.9414 47.555 13.0366 47.9102 13.0366ZM55.2024 14.2724C54.549 14.2724 53.9879 14.1289 53.5192 13.842C53.0533 13.555 52.6939 13.1587 52.4411 12.6531C52.1911 12.1445 52.0661 11.5593 52.0661 10.8974C52.0661 10.2326 52.1939 9.64595 52.4496 9.13743C52.7053 8.62607 53.0661 8.22834 53.532 7.94425C54.0007 7.65732 54.5547 7.51385 55.1939 7.51385C55.7251 7.51385 56.1953 7.61186 56.6044 7.80788C57.0163 8.00107 57.3445 8.27521 57.5888 8.63033C57.8331 8.9826 57.9723 9.39453 58.0064 9.86612H56.532C56.4723 9.55078 56.3303 9.288 56.1058 9.07777C55.8842 8.8647 55.5874 8.75817 55.2152 8.75817C54.8999 8.75817 54.6229 8.84339 54.3842 9.01385C54.1456 9.18146 53.9595 9.42294 53.826 9.73828C53.6953 10.0536 53.63 10.4315 53.63 10.8718C53.63 11.3178 53.6953 11.7013 53.826 12.0224C53.9567 12.3406 54.1399 12.5863 54.3757 12.7596C54.6143 12.93 54.8942 13.0153 55.2152 13.0153C55.4425 13.0153 55.6456 12.9727 55.8246 12.8874C56.0064 12.7994 56.1584 12.6729 56.2805 12.5082C56.4027 12.3434 56.4865 12.1431 56.532 11.9073H58.0064C57.9695 12.3704 57.8331 12.7809 57.5973 13.1388C57.3615 13.494 57.0405 13.7724 56.6342 13.9741C56.228 14.1729 55.7507 14.2724 55.2024 14.2724ZM61.1566 14.2766C60.7418 14.2766 60.3683 14.2028 60.0359 14.055C59.7063 13.9045 59.445 13.6829 59.2518 13.3903C59.0614 13.0977 58.9663 12.7369 58.9663 12.3079C58.9663 11.9386 59.0344 11.6332 59.1708 11.3917C59.3072 11.1502 59.4933 10.957 59.729 10.8121C59.9648 10.6673 60.2305 10.5579 60.5259 10.484C60.8242 10.4073 61.1325 10.3519 61.4506 10.3178C61.8342 10.2781 62.1452 10.2425 62.3839 10.2113C62.6225 10.1772 62.7958 10.1261 62.9038 10.0579C63.0146 9.98686 63.07 9.87749 63.07 9.72976V9.70419C63.07 9.38317 62.9748 9.13459 62.7844 8.95845C62.5941 8.78232 62.32 8.69425 61.962 8.69425C61.5842 8.69425 61.2844 8.77663 61.0629 8.94141C60.8441 9.10618 60.6964 9.30078 60.6197 9.52521L59.1793 9.32067C59.293 8.92294 59.4805 8.59055 59.7418 8.32351C60.0032 8.05362 60.3228 7.85192 60.7006 7.71839C61.0785 7.58203 61.4961 7.51385 61.9535 7.51385C62.2688 7.51385 62.5827 7.55078 62.8952 7.62464C63.2077 7.69851 63.4933 7.82067 63.7518 7.99112C64.0103 8.15874 64.2177 8.38743 64.3739 8.6772C64.533 8.96697 64.6126 9.32919 64.6126 9.76385V14.1445H63.1296V13.2454H63.0785C62.9847 13.4272 62.8526 13.5977 62.6822 13.7567C62.5146 13.913 62.3029 14.0394 62.0472 14.136C61.7944 14.2298 61.4975 14.2766 61.1566 14.2766ZM61.5572 13.1431C61.8668 13.1431 62.1353 13.082 62.3626 12.9599C62.5898 12.8349 62.7646 12.6701 62.8867 12.4656C63.0117 12.261 63.0742 12.038 63.0742 11.7965V11.0252C63.0259 11.065 62.9435 11.1019 62.8271 11.136C62.7134 11.1701 62.5856 11.1999 62.4435 11.2255C62.3015 11.2511 62.1609 11.2738 62.0217 11.2937C61.8825 11.3136 61.7617 11.3306 61.6594 11.3448C61.4293 11.3761 61.2234 11.4272 61.0415 11.4982C60.8597 11.5692 60.7163 11.6687 60.6112 11.7965C60.506 11.9215 60.4535 12.0835 60.4535 12.2823C60.4535 12.5664 60.5572 12.7809 60.7646 12.9258C60.9719 13.0707 61.2362 13.1431 61.5572 13.1431ZM67.7063 5.41726V14.1445H66.1637V5.41726H67.7063ZM75.1243 14.2724C74.4709 14.2724 73.9098 14.1289 73.4411 13.842C72.9751 13.555 72.6158 13.1587 72.3629 12.6531C72.1129 12.1445 71.9879 11.5593 71.9879 10.8974C71.9879 10.2326 72.1158 9.64595 72.3714 9.13743C72.6271 8.62607 72.9879 8.22834 73.4538 7.94425C73.9226 7.65732 74.4766 7.51385 75.1158 7.51385C75.647 7.51385 76.1172 7.61186 76.5263 7.80788C76.9382 8.00107 77.2663 8.27521 77.5107 8.63033C77.755 8.9826 77.8942 9.39453 77.9283 9.86612H76.4538C76.3942 9.55078 76.2521 9.288 76.0277 9.07777C75.8061 8.8647 75.5092 8.75817 75.1371 8.75817C74.8217 8.75817 74.5447 8.84339 74.3061 9.01385C74.0675 9.18146 73.8814 9.42294 73.7479 9.73828C73.6172 10.0536 73.5518 10.4315 73.5518 10.8718C73.5518 11.3178 73.6172 11.7013 73.7479 12.0224C73.8786 12.3406 74.0618 12.5863 74.2976 12.7596C74.5362 12.93 74.8161 13.0153 75.1371 13.0153C75.3643 13.0153 75.5675 12.9727 75.7464 12.8874C75.9283 12.7994 76.0803 12.6729 76.2024 12.5082C76.3246 12.3434 76.4084 12.1431 76.4538 11.9073H77.9283C77.8913 12.3704 77.755 12.7809 77.5192 13.1388C77.2834 13.494 76.9624 13.7724 76.5561 13.9741C76.1499 14.1729 75.6726 14.2724 75.1243 14.2724ZM81.0785 14.2766C80.6637 14.2766 80.2901 14.2028 79.9577 14.055C79.6282 13.9045 79.3668 13.6829 79.1737 13.3903C78.9833 13.0977 78.8881 12.7369 78.8881 12.3079C78.8881 11.9386 78.9563 11.6332 79.0927 11.3917C79.229 11.1502 79.4151 10.957 79.6509 10.8121C79.8867 10.6673 80.1523 10.5579 80.4478 10.484C80.7461 10.4073 81.0543 10.3519 81.3725 10.3178C81.756 10.2781 82.0671 10.2425 82.3058 10.2113C82.5444 10.1772 82.7177 10.1261 82.8256 10.0579C82.9364 9.98686 82.9918 9.87749 82.9918 9.72976V9.70419C82.9918 9.38317 82.8967 9.13459 82.7063 8.95845C82.516 8.78232 82.2418 8.69425 81.8839 8.69425C81.506 8.69425 81.2063 8.77663 80.9847 8.94141C80.766 9.10618 80.6183 9.30078 80.5415 9.52521L79.1012 9.32067C79.2148 8.92294 79.4023 8.59055 79.6637 8.32351C79.9251 8.05362 80.2447 7.85192 80.6225 7.71839C81.0004 7.58203 81.418 7.51385 81.8754 7.51385C82.1907 7.51385 82.5046 7.55078 82.8171 7.62464C83.1296 7.69851 83.4151 7.82067 83.6737 7.99112C83.9322 8.15874 84.1396 8.38743 84.2958 8.6772C84.4549 8.96697 84.5344 9.32919 84.5344 9.76385V14.1445H83.0515V13.2454H83.0004C82.9066 13.4272 82.7745 13.5977 82.604 13.7567C82.4364 13.913 82.2248 14.0394 81.9691 14.136C81.7163 14.2298 81.4194 14.2766 81.0785 14.2766ZM81.479 13.1431C81.7887 13.1431 82.0572 13.082 82.2844 12.9599C82.5117 12.8349 82.6864 12.6701 82.8086 12.4656C82.9336 12.261 82.9961 12.038 82.9961 11.7965V11.0252C82.9478 11.065 82.8654 11.1019 82.7489 11.136C82.6353 11.1701 82.5075 11.1999 82.3654 11.2255C82.2234 11.2511 82.0827 11.2738 81.9435 11.2937C81.8043 11.3136 81.6836 11.3306 81.5813 11.3448C81.3512 11.3761 81.1452 11.4272 80.9634 11.4982C80.7816 11.5692 80.6381 11.6687 80.533 11.7965C80.4279 11.9215 80.3754 12.0835 80.3754 12.2823C80.3754 12.5664 80.479 12.7809 80.6864 12.9258C80.8938 13.0707 81.158 13.1431 81.479 13.1431ZM86.0856 14.1445V7.59908H87.5813V8.68999H87.6495C87.7688 8.31214 87.9734 8.02095 88.2631 7.81641C88.5558 7.60902 88.8896 7.50533 89.2646 7.50533C89.3498 7.50533 89.445 7.50959 89.5501 7.51811C89.658 7.52379 89.7475 7.53374 89.8185 7.54794V8.96697C89.7532 8.94425 89.6495 8.92436 89.5075 8.90732C89.3683 8.88743 89.2333 8.87749 89.1026 8.87749C88.8214 8.87749 88.5685 8.93857 88.3441 9.06072C88.1225 9.18004 87.9478 9.34624 87.82 9.5593C87.6921 9.77237 87.6282 10.0181 87.6282 10.2965V14.1445H86.0856ZM90.8434 14.1445V7.59908H92.3391V8.68999H92.4073C92.5266 8.31214 92.7312 8.02095 93.021 7.81641C93.3136 7.60902 93.6474 7.50533 94.0224 7.50533C94.1076 7.50533 94.2028 7.50959 94.3079 7.51811C94.4158 7.52379 94.5053 7.53374 94.5763 7.54794V8.96697C94.511 8.94425 94.4073 8.92436 94.2653 8.90732C94.1261 8.88743 93.9911 8.87749 93.8604 8.87749C93.5792 8.87749 93.3263 8.93857 93.1019 9.06072C92.8803 9.18004 92.7056 9.34624 92.5778 9.5593C92.4499 9.77237 92.386 10.0181 92.386 10.2965V14.1445H90.8434ZM95.6012 14.1445V7.59908H97.1438V14.1445H95.6012ZM96.3768 6.6701C96.1325 6.6701 95.9222 6.58913 95.7461 6.4272C95.57 6.26243 95.4819 6.06499 95.4819 5.83487C95.4819 5.60192 95.57 5.40447 95.7461 5.24254C95.9222 5.07777 96.1325 4.99538 96.3768 4.99538C96.6239 4.99538 96.8342 5.07777 97.0075 5.24254C97.1836 5.40447 97.2717 5.60192 97.2717 5.83487C97.2717 6.06499 97.1836 6.26243 97.0075 6.4272C96.8342 6.58913 96.6239 6.6701 96.3768 6.6701ZM101.628 14.2724C100.972 14.2724 100.405 14.136 99.9276 13.8633C99.4531 13.5877 99.0881 13.1985 98.8324 12.6957C98.5767 12.19 98.4489 11.5948 98.4489 10.9102C98.4489 10.2369 98.5767 9.64595 98.8324 9.13743C99.0909 8.62607 99.4517 8.22834 99.9148 7.94425C100.378 7.65732 100.922 7.51385 101.547 7.51385C101.95 7.51385 102.331 7.57919 102.689 7.70987C103.05 7.83771 103.368 8.03658 103.643 8.30646C103.922 8.57635 104.141 8.9201 104.3 9.33771C104.459 9.75249 104.538 10.2468 104.538 10.8207V11.2937H99.1733V10.2539H103.06C103.057 9.95845 102.993 9.69567 102.868 9.46555C102.743 9.2326 102.568 9.04936 102.344 8.91584C102.122 8.78232 101.864 8.71555 101.568 8.71555C101.253 8.71555 100.976 8.79226 100.737 8.94567C100.499 9.09624 100.313 9.2951 100.179 9.54226C100.048 9.78658 99.9815 10.055 99.9787 10.3477V11.2553C99.9787 11.636 100.048 11.9627 100.188 12.2354C100.327 12.5053 100.521 12.7127 100.771 12.8576C101.021 12.9996 101.314 13.0707 101.649 13.0707C101.874 13.0707 102.077 13.0394 102.259 12.9769C102.44 12.9116 102.598 12.8164 102.732 12.6914C102.865 12.5664 102.966 12.4116 103.034 12.2269L104.474 12.3888C104.384 12.7695 104.21 13.1019 103.955 13.386C103.702 13.6673 103.378 13.886 102.983 14.0423C102.588 14.1957 102.136 14.2724 101.628 14.2724ZM105.843 14.1445V7.59908H107.339V8.68999H107.407C107.527 8.31214 107.731 8.02095 108.021 7.81641C108.314 7.60902 108.647 7.50533 109.022 7.50533C109.108 7.50533 109.203 7.50959 109.308 7.51811C109.416 7.52379 109.505 7.53374 109.576 7.54794V8.96697C109.511 8.94425 109.407 8.92436 109.265 8.90732C109.126 8.88743 108.991 8.87749 108.86 8.87749C108.579 8.87749 108.326 8.93857 108.102 9.06072C107.88 9.18004 107.706 9.34624 107.578 9.5593C107.45 9.77237 107.386 10.0181 107.386 10.2965V14.1445H105.843ZM115.775 9.32919L114.368 9.4826C114.328 9.34055 114.259 9.20703 114.159 9.08203C114.063 8.95703 113.932 8.85618 113.767 8.77947C113.603 8.70277 113.401 8.66442 113.162 8.66442C112.841 8.66442 112.571 8.73402 112.353 8.87322C112.137 9.01243 112.03 9.19283 112.033 9.41442C112.03 9.60476 112.1 9.75959 112.242 9.87891C112.387 9.99822 112.625 10.0962 112.958 10.1729L114.074 10.4116C114.694 10.5451 115.154 10.7567 115.455 11.0465C115.759 11.3363 115.912 11.7156 115.915 12.1843C115.912 12.5962 115.792 12.9599 115.553 13.2752C115.317 13.5877 114.989 13.832 114.569 14.0082C114.148 14.1843 113.665 14.2724 113.12 14.2724C112.319 14.2724 111.674 14.1048 111.185 13.7695C110.696 13.4315 110.405 12.9613 110.311 12.359L111.816 12.2141C111.884 12.5096 112.029 12.7326 112.25 12.8832C112.472 13.0337 112.76 13.109 113.115 13.109C113.482 13.109 113.776 13.0337 113.998 12.8832C114.222 12.7326 114.334 12.5465 114.334 12.3249C114.334 12.1374 114.262 11.9826 114.117 11.8604C113.975 11.7383 113.753 11.6445 113.452 11.5792L112.336 11.3448C111.708 11.2141 111.243 10.994 110.942 10.6843C110.641 10.3718 110.492 9.97692 110.495 9.49964C110.492 9.09624 110.601 8.7468 110.823 8.45135C111.047 8.15305 111.358 7.92294 111.756 7.76101C112.157 7.59624 112.618 7.51385 113.141 7.51385C113.908 7.51385 114.512 7.6772 114.952 8.00391C115.395 8.33061 115.669 8.77237 115.775 9.32919Z" fill="#4E4B66"/>
</svg>
