<svg width="62" height="18" viewBox="0 0 62 18" fill="none" xmlns="http://www.w3.org/2000/svg">
<g id="Verizon_Communications-Logo.wine 1" clip-path="url(#clip0_710_44141)">
<path id="Vector" d="M55.1882 5.20175H53.8533L55.8831 9.62662H56.962L61.0307 0.767578H59.705L56.4225 7.90687L55.1882 5.20175Z" fill="#D52B1E"/>
<path id="Vector_2" d="M45.6224 14.0254H48.2648V9.10785C48.2648 7.98304 48.9048 7.19289 49.8557 7.19289C50.77 7.19289 51.2455 7.84361 51.2455 8.7825V14.0254H53.8879V8.27122C53.8879 6.31907 52.7358 4.94327 50.8706 4.94327C49.682 4.94327 48.8499 5.46384 48.2282 6.41203H48.1733V5.20356H45.6132L45.6224 14.0254ZM40.429 4.96186C37.6677 4.96186 35.8208 6.97908 35.8208 9.63772C35.8208 12.2778 37.6677 14.3136 40.429 14.3136C43.1903 14.3136 45.0372 12.2778 45.0372 9.63772C45.0463 6.97908 43.1903 4.96186 40.429 4.96186ZM40.4107 12.3243C39.1581 12.3243 38.4906 11.2552 38.4906 9.63772C38.4906 8.00164 39.1489 6.95119 40.4107 6.95119C41.6633 6.95119 42.3582 8.00164 42.3582 9.63772C42.3674 11.2552 41.6725 12.3243 40.4107 12.3243ZM28.2867 14.0254H35.7111V11.9059H31.5052V11.8502L35.5282 7.26726V5.19426H28.2867V7.32303H32.3555V7.37881L28.2867 11.9989V14.0254ZM24.8946 14.0254H27.5553V5.20356H24.8946V14.0254ZM18.7229 14.0254H21.3744V9.97238C21.3744 8.13178 22.4625 7.31374 24.1174 7.54614H24.1723V5.22215C24.0351 5.16637 23.8797 5.15708 23.6328 5.15708C22.5996 5.15708 21.9047 5.64047 21.3104 6.67232H21.2556V5.20356H18.7229V14.0254ZM13.8586 12.3336C12.6883 12.3336 11.9751 11.562 11.838 10.3721H18.092C18.1103 8.47573 17.6165 6.96049 16.5833 6.0123C15.8519 5.3244 14.8918 4.94327 13.6666 4.94327C11.0517 4.94327 9.2413 6.96049 9.2413 9.60054C9.2413 12.2592 10.9694 14.2857 13.8404 14.2857C14.9284 14.2857 15.7879 13.9882 16.5011 13.4955C17.2599 12.9657 17.8085 12.1848 17.9548 11.4133H15.413C15.1661 11.9896 14.6358 12.3336 13.8586 12.3336ZM13.7215 6.86753C14.6541 6.86753 15.2941 7.57402 15.4039 8.60587H11.8563C12.0666 7.56473 12.6243 6.86753 13.7215 6.86753ZM3.95649 14.0254H6.73604L9.75332 5.20356H7.09263L5.40112 10.8741H5.36455L3.67305 5.20356H0.939209L3.95649 14.0254ZM24.8946 2.06152H27.5553V4.45988H24.8946V2.06152Z" fill="black"/>
</g>
<defs>
<clipPath id="clip0_710_44141">
<rect width="60.1496" height="17.6439" fill="white" transform="translate(0.907959 0.322266)"/>
</clipPath>
</defs>
</svg>
